<mxfile host="app.diagrams.net" modified="2021-05-30T05:04:55.809Z" agent="5.0 (Windows NT 10.0; Win64; x64) AppleWebKit/537.36 (KHTML, like Gecko) Chrome/91.0.4472.77 Safari/537.36 Edg/91.0.864.37" etag="uPh6fgKFaPgUOLovn58Y" version="14.7.3" type="github">
  <diagram id="4gJbped7-Dyfgg0p7cd7" name="第 1 页">
    <mxGraphModel dx="2249" dy="762" grid="1" gridSize="10" guides="1" tooltips="1" connect="1" arrows="1" fold="1" page="1" pageScale="1" pageWidth="827" pageHeight="1169" math="0" shadow="0">
      <root>
        <mxCell id="0" />
        <mxCell id="1" parent="0" />
        <mxCell id="OfHiRRe80xynDJADuJrB-1" value="&lt;font style=&quot;font-size: 18px&quot;&gt;preorder :[1, 2, 5, 4, 6, 7, 3, 8, 9 ]&lt;br&gt;inorder :[5, 2, 6, 7, 4, 1, 8, 3, 9 ]&amp;nbsp;&amp;nbsp;&lt;/font&gt;" style="text;html=1;strokeColor=#666666;fillColor=#f5f5f5;align=center;verticalAlign=middle;whiteSpace=wrap;rounded=0;fontColor=#333333;" parent="1" vertex="1">
          <mxGeometry x="-482.5" y="397" width="300" height="50" as="geometry" />
        </mxCell>
        <mxCell id="OfHiRRe80xynDJADuJrB-4" value="&lt;h1&gt;&lt;span style=&quot;font-size: 18px ; text-align: center&quot;&gt;preorder :[1, 2, 5, 4, 6, 7, 3, 8, 9 ]&lt;/span&gt;&lt;br style=&quot;font-size: 18px ; text-align: center&quot;&gt;&lt;span style=&quot;font-size: 18px ; text-align: center&quot;&gt;inorder :[5, 2, 6, 7, 4, 1, 8, 3, 9 ]&amp;nbsp;&amp;nbsp;&lt;/span&gt;&lt;br&gt;&lt;/h1&gt;&lt;p&gt;node = Treenode(1)&lt;br&gt;in_left&amp;nbsp; = [5, 2, 6, 7, 4]&lt;br&gt;in_right = [8, 3, 9]&lt;br&gt;pre_left = [2, 5, 4, 6, 7]&lt;br&gt;pre_right = [3, 8, 9]&lt;br&gt;node.left = build(pre_left = [2, 5, 4, 6, 7], in_left = [5, 2, 6, 7, 4])&lt;br&gt;node.right = build(pre_right = [3, 8, 9], in_right=[8, 3, 9])&lt;/p&gt;" style="text;html=1;strokeColor=#666666;fillColor=#f5f5f5;spacing=5;spacingTop=-20;whiteSpace=wrap;overflow=hidden;rounded=0;fontColor=#333333;" parent="1" vertex="1">
          <mxGeometry y="215" width="360" height="190" as="geometry" />
        </mxCell>
        <mxCell id="OfHiRRe80xynDJADuJrB-36" style="edgeStyle=orthogonalEdgeStyle;curved=1;rounded=0;orthogonalLoop=1;jettySize=auto;html=1;exitX=0;exitY=0.25;exitDx=0;exitDy=0;entryX=0.944;entryY=0.805;entryDx=0;entryDy=0;entryPerimeter=0;startArrow=classic;startFill=1;endArrow=none;endFill=0;strokeColor=#FF3333;" parent="1" source="OfHiRRe80xynDJADuJrB-5" target="OfHiRRe80xynDJADuJrB-4" edge="1">
          <mxGeometry relative="1" as="geometry" />
        </mxCell>
        <mxCell id="OfHiRRe80xynDJADuJrB-41" style="edgeStyle=orthogonalEdgeStyle;curved=1;rounded=0;orthogonalLoop=1;jettySize=auto;html=1;exitX=0;exitY=0.75;exitDx=0;exitDy=0;entryX=0.951;entryY=0.838;entryDx=0;entryDy=0;entryPerimeter=0;startArrow=none;startFill=0;endArrow=classic;endFill=1;strokeColor=#B09500;fillColor=#e3c800;" parent="1" source="OfHiRRe80xynDJADuJrB-5" target="OfHiRRe80xynDJADuJrB-4" edge="1">
          <mxGeometry relative="1" as="geometry">
            <Array as="points">
              <mxPoint x="440" y="272" />
              <mxPoint x="440" y="374" />
            </Array>
          </mxGeometry>
        </mxCell>
        <mxCell id="OfHiRRe80xynDJADuJrB-5" value="&lt;h1&gt;&lt;span style=&quot;font-weight: normal&quot;&gt;preorder = [2, 5, 4, 6, 7]&lt;br&gt;inorder = [5, 2, 6, 7, 4]&lt;/span&gt;&lt;/h1&gt;&lt;p&gt;node = Treenode(2)&lt;br&gt;in_left&amp;nbsp; = [ 5 ]&lt;br&gt;in_right = [6, 7, 4]&lt;br&gt;pre_left = [5]&lt;br&gt;pre_right = [4, 6, 7]&lt;br&gt;node.left = build(pre_left = [ 5 ], in_left = [ 5 ])&lt;br&gt;node.right = build(pre_right = [4, 6, 7], in_right=[6, 7, 4])&lt;br&gt;return node&lt;/p&gt;" style="text;html=1;strokeColor=#666666;fillColor=#f5f5f5;spacing=5;spacingTop=-20;whiteSpace=wrap;overflow=hidden;rounded=0;fontColor=#333333;" parent="1" vertex="1">
          <mxGeometry x="490" y="130" width="310" height="190" as="geometry" />
        </mxCell>
        <mxCell id="OfHiRRe80xynDJADuJrB-37" style="edgeStyle=orthogonalEdgeStyle;curved=1;rounded=0;orthogonalLoop=1;jettySize=auto;html=1;exitX=0;exitY=0.25;exitDx=0;exitDy=0;entryX=0.848;entryY=0.877;entryDx=0;entryDy=0;entryPerimeter=0;startArrow=classic;startFill=1;endArrow=none;endFill=0;strokeColor=#FF3333;" parent="1" source="OfHiRRe80xynDJADuJrB-6" target="OfHiRRe80xynDJADuJrB-4" edge="1">
          <mxGeometry relative="1" as="geometry">
            <Array as="points">
              <mxPoint x="420" y="495" />
              <mxPoint x="420" y="382" />
            </Array>
          </mxGeometry>
        </mxCell>
        <mxCell id="OfHiRRe80xynDJADuJrB-40" style="edgeStyle=orthogonalEdgeStyle;curved=1;rounded=0;orthogonalLoop=1;jettySize=auto;html=1;exitX=0;exitY=0.75;exitDx=0;exitDy=0;entryX=0.849;entryY=0.91;entryDx=0;entryDy=0;entryPerimeter=0;startArrow=none;startFill=0;endArrow=classic;endFill=1;strokeColor=#B09500;fillColor=#e3c800;" parent="1" source="OfHiRRe80xynDJADuJrB-6" target="OfHiRRe80xynDJADuJrB-4" edge="1">
          <mxGeometry relative="1" as="geometry">
            <Array as="points">
              <mxPoint x="400" y="595" />
              <mxPoint x="400" y="388" />
            </Array>
          </mxGeometry>
        </mxCell>
        <mxCell id="OfHiRRe80xynDJADuJrB-6" value="&lt;h1&gt;&lt;span style=&quot;font-size: 18px ; text-align: center&quot;&gt;preorder :[ 3, 8, 9 ]&lt;/span&gt;&lt;br style=&quot;font-size: 18px ; text-align: center&quot;&gt;&lt;span style=&quot;font-size: 18px ; text-align: center&quot;&gt;inorder :[8, 3, 9 ]&amp;nbsp;&amp;nbsp;&lt;/span&gt;&lt;br&gt;&lt;/h1&gt;&lt;p&gt;node = Treenode(3)&lt;br&gt;in_left&amp;nbsp; = [ 8 ]&lt;br&gt;in_right = [ 9 ]&lt;br&gt;pre_left = [ 8 ]&lt;br&gt;pre_right = [ 9 ]&lt;br&gt;node.left = build(pre_left = [ 8 ], in_left = [ 8 ])&lt;br&gt;node.right = build(pre_right = [ 9 ], in_right=[ 9 ])&lt;br&gt;return node&lt;/p&gt;" style="text;html=1;strokeColor=#666666;fillColor=#f5f5f5;spacing=5;spacingTop=-20;whiteSpace=wrap;overflow=hidden;rounded=0;fontColor=#333333;" parent="1" vertex="1">
          <mxGeometry x="490" y="445" width="310" height="200" as="geometry" />
        </mxCell>
        <mxCell id="OfHiRRe80xynDJADuJrB-34" style="edgeStyle=orthogonalEdgeStyle;curved=1;rounded=0;orthogonalLoop=1;jettySize=auto;html=1;exitX=0;exitY=0.25;exitDx=0;exitDy=0;entryX=0.808;entryY=0.756;entryDx=0;entryDy=0;entryPerimeter=0;startArrow=classic;startFill=1;endArrow=none;endFill=0;strokeColor=#FF3333;" parent="1" source="OfHiRRe80xynDJADuJrB-7" target="OfHiRRe80xynDJADuJrB-6" edge="1">
          <mxGeometry relative="1" as="geometry" />
        </mxCell>
        <mxCell id="OfHiRRe80xynDJADuJrB-38" style="edgeStyle=orthogonalEdgeStyle;curved=1;rounded=0;orthogonalLoop=1;jettySize=auto;html=1;exitX=0;exitY=0.75;exitDx=0;exitDy=0;entryX=0.808;entryY=0.789;entryDx=0;entryDy=0;entryPerimeter=0;startArrow=none;startFill=0;endArrow=classic;endFill=1;strokeColor=#B09500;fillColor=#e3c800;" parent="1" source="OfHiRRe80xynDJADuJrB-7" target="OfHiRRe80xynDJADuJrB-6" edge="1">
          <mxGeometry relative="1" as="geometry" />
        </mxCell>
        <mxCell id="OfHiRRe80xynDJADuJrB-7" value="&lt;h1&gt;&lt;span style=&quot;font-size: 18px ; text-align: center&quot;&gt;preorder :[ 8 ]&lt;br&gt;&lt;/span&gt;&lt;span style=&quot;font-size: 18px ; text-align: center&quot;&gt;inorder :[ 8 ]&amp;nbsp;&amp;nbsp;&lt;/span&gt;&lt;br&gt;&lt;/h1&gt;&lt;p&gt;node = Treenode(preorder[ 0 ])&lt;br&gt;return node&lt;/p&gt;" style="text;html=1;strokeColor=#666666;fillColor=#f5f5f5;spacing=5;spacingTop=-20;whiteSpace=wrap;overflow=hidden;rounded=0;fontColor=#333333;" parent="1" vertex="1">
          <mxGeometry x="990" y="490" width="210" height="110" as="geometry" />
        </mxCell>
        <mxCell id="OfHiRRe80xynDJADuJrB-35" style="edgeStyle=orthogonalEdgeStyle;curved=1;rounded=0;orthogonalLoop=1;jettySize=auto;html=1;exitX=0;exitY=0.25;exitDx=0;exitDy=0;entryX=0.843;entryY=0.834;entryDx=0;entryDy=0;entryPerimeter=0;startArrow=classic;startFill=1;endArrow=none;endFill=0;strokeColor=#FF3333;" parent="1" source="OfHiRRe80xynDJADuJrB-9" target="OfHiRRe80xynDJADuJrB-6" edge="1">
          <mxGeometry relative="1" as="geometry" />
        </mxCell>
        <mxCell id="OfHiRRe80xynDJADuJrB-39" style="edgeStyle=orthogonalEdgeStyle;curved=1;rounded=0;orthogonalLoop=1;jettySize=auto;html=1;exitX=0;exitY=0.75;exitDx=0;exitDy=0;entryX=0.832;entryY=0.869;entryDx=0;entryDy=0;entryPerimeter=0;startArrow=none;startFill=0;endArrow=classic;endFill=1;strokeColor=#B09500;fillColor=#e3c800;" parent="1" source="OfHiRRe80xynDJADuJrB-9" target="OfHiRRe80xynDJADuJrB-6" edge="1">
          <mxGeometry relative="1" as="geometry" />
        </mxCell>
        <mxCell id="OfHiRRe80xynDJADuJrB-9" value="&lt;h1&gt;&lt;span style=&quot;font-size: 18px ; text-align: center&quot;&gt;preorder :[ 9 ]&lt;/span&gt;&lt;br style=&quot;font-size: 18px ; text-align: center&quot;&gt;&lt;span style=&quot;font-size: 18px ; text-align: center&quot;&gt;inorder :[ 9 ]&amp;nbsp;&amp;nbsp;&lt;/span&gt;&lt;br&gt;&lt;/h1&gt;&lt;p&gt;node = Treenode(preorder[ 0 ])&lt;br&gt;return node&lt;/p&gt;" style="text;html=1;strokeColor=#666666;fillColor=#f5f5f5;spacing=5;spacingTop=-20;whiteSpace=wrap;overflow=hidden;rounded=0;fontColor=#333333;" parent="1" vertex="1">
          <mxGeometry x="990" y="640" width="210" height="110" as="geometry" />
        </mxCell>
        <mxCell id="OfHiRRe80xynDJADuJrB-28" style="edgeStyle=orthogonalEdgeStyle;curved=1;rounded=0;orthogonalLoop=1;jettySize=auto;html=1;exitX=0;exitY=0.25;exitDx=0;exitDy=0;entryX=0.801;entryY=0.794;entryDx=0;entryDy=0;entryPerimeter=0;startArrow=classic;startFill=1;endArrow=none;endFill=0;strokeColor=#FF3333;" parent="1" source="OfHiRRe80xynDJADuJrB-14" target="OfHiRRe80xynDJADuJrB-5" edge="1">
          <mxGeometry relative="1" as="geometry" />
        </mxCell>
        <mxCell id="OfHiRRe80xynDJADuJrB-29" style="edgeStyle=orthogonalEdgeStyle;curved=1;rounded=0;orthogonalLoop=1;jettySize=auto;html=1;exitX=0;exitY=0.75;exitDx=0;exitDy=0;entryX=0.801;entryY=0.83;entryDx=0;entryDy=0;entryPerimeter=0;startArrow=none;startFill=0;endArrow=classic;endFill=1;strokeColor=#B09500;fillColor=#e3c800;" parent="1" source="OfHiRRe80xynDJADuJrB-14" target="OfHiRRe80xynDJADuJrB-5" edge="1">
          <mxGeometry relative="1" as="geometry">
            <Array as="points">
              <mxPoint x="900" y="142" />
              <mxPoint x="900" y="288" />
            </Array>
          </mxGeometry>
        </mxCell>
        <mxCell id="OfHiRRe80xynDJADuJrB-14" value="&lt;h1&gt;&lt;span style=&quot;font-size: 18px ; text-align: center&quot;&gt;preorder :[ 5 ]&lt;br&gt;&lt;/span&gt;&lt;span style=&quot;font-size: 18px ; text-align: center&quot;&gt;inorder :[ 5 ]&amp;nbsp;&amp;nbsp;&lt;/span&gt;&lt;br&gt;&lt;/h1&gt;&lt;p&gt;node = Treenode(preorder[ 0 ])&lt;br&gt;return node&lt;/p&gt;" style="text;html=1;strokeColor=#666666;fillColor=#f5f5f5;spacing=5;spacingTop=-20;whiteSpace=wrap;overflow=hidden;rounded=0;fontColor=#333333;" parent="1" vertex="1">
          <mxGeometry x="980" y="60" width="300" height="110" as="geometry" />
        </mxCell>
        <mxCell id="OfHiRRe80xynDJADuJrB-30" style="edgeStyle=orthogonalEdgeStyle;curved=1;rounded=0;orthogonalLoop=1;jettySize=auto;html=1;exitX=0;exitY=0.25;exitDx=0;exitDy=0;entryX=0.965;entryY=0.874;entryDx=0;entryDy=0;entryPerimeter=0;startArrow=classic;startFill=1;endArrow=none;endFill=0;strokeColor=#FF3333;" parent="1" source="OfHiRRe80xynDJADuJrB-15" target="OfHiRRe80xynDJADuJrB-5" edge="1">
          <mxGeometry relative="1" as="geometry" />
        </mxCell>
        <mxCell id="OfHiRRe80xynDJADuJrB-31" style="edgeStyle=orthogonalEdgeStyle;curved=1;rounded=0;orthogonalLoop=1;jettySize=auto;html=1;exitX=0;exitY=0.75;exitDx=0;exitDy=0;entryX=0.965;entryY=0.918;entryDx=0;entryDy=0;entryPerimeter=0;startArrow=none;startFill=0;endArrow=classic;endFill=1;strokeColor=#B09500;fillColor=#e3c800;" parent="1" source="OfHiRRe80xynDJADuJrB-15" target="OfHiRRe80xynDJADuJrB-5" edge="1">
          <mxGeometry relative="1" as="geometry" />
        </mxCell>
        <mxCell id="OfHiRRe80xynDJADuJrB-15" value="&lt;h1&gt;&lt;span style=&quot;font-weight: normal&quot;&gt;preorder = [4, 6, 7]&lt;br&gt;inorder = [6, 7, 4]&lt;/span&gt;&lt;/h1&gt;&lt;p&gt;node = Treenode(4)&lt;br&gt;in_left&amp;nbsp; = [ 6, 7 ]&lt;br&gt;in_right = [ ]&lt;br&gt;pre_left = [6, 7]&lt;br&gt;pre_right = []&lt;br&gt;node.left = build(pre_left = [ 6, 7 ], in_left = [ 6, 7 ])&lt;br&gt;node.right = build(pre_right = [ ], in_right=[ ])&lt;br&gt;return node&lt;/p&gt;" style="text;html=1;strokeColor=#666666;fillColor=#f5f5f5;spacing=5;spacingTop=-20;whiteSpace=wrap;overflow=hidden;rounded=0;fontColor=#333333;" parent="1" vertex="1">
          <mxGeometry x="980" y="210" width="300" height="200" as="geometry" />
        </mxCell>
        <mxCell id="OfHiRRe80xynDJADuJrB-24" style="edgeStyle=orthogonalEdgeStyle;curved=1;rounded=0;orthogonalLoop=1;jettySize=auto;html=1;exitX=0;exitY=0.25;exitDx=0;exitDy=0;entryX=0.916;entryY=0.754;entryDx=0;entryDy=0;entryPerimeter=0;startArrow=classic;startFill=1;endArrow=none;endFill=0;strokeColor=#FF3333;" parent="1" source="OfHiRRe80xynDJADuJrB-16" target="OfHiRRe80xynDJADuJrB-15" edge="1">
          <mxGeometry relative="1" as="geometry" />
        </mxCell>
        <mxCell id="OfHiRRe80xynDJADuJrB-25" style="edgeStyle=orthogonalEdgeStyle;curved=1;rounded=0;orthogonalLoop=1;jettySize=auto;html=1;exitX=0;exitY=0.75;exitDx=0;exitDy=0;entryX=0.92;entryY=0.796;entryDx=0;entryDy=0;entryPerimeter=0;startArrow=none;startFill=0;endArrow=classic;endFill=1;strokeColor=#B09500;fillColor=#e3c800;" parent="1" source="OfHiRRe80xynDJADuJrB-16" target="OfHiRRe80xynDJADuJrB-15" edge="1">
          <mxGeometry relative="1" as="geometry" />
        </mxCell>
        <mxCell id="OfHiRRe80xynDJADuJrB-16" value="&lt;h1&gt;&lt;span style=&quot;font-weight: normal&quot;&gt;preorder = [6, 7]&lt;br&gt;inorder = [6, 7]&lt;/span&gt;&lt;/h1&gt;&lt;p&gt;node = Treenode(6)&lt;br&gt;in_left&amp;nbsp; = [ ]&lt;br&gt;in_right = [ 7 ]&lt;br&gt;pre_left = [&amp;nbsp; ]&lt;br&gt;pre_right = [ 7 ]&lt;br&gt;node.left = build(pre_left = [&amp;nbsp; ], in_left = [&amp;nbsp; ])&lt;br&gt;node.right = build(pre_right = [ 7 ], in_right=[ 7 ])&lt;br&gt;return node&lt;/p&gt;" style="text;html=1;strokeColor=#666666;fillColor=#f5f5f5;spacing=5;spacingTop=-20;whiteSpace=wrap;overflow=hidden;rounded=0;fontColor=#333333;" parent="1" vertex="1">
          <mxGeometry x="1400" y="180" width="290" height="190" as="geometry" />
        </mxCell>
        <mxCell id="OfHiRRe80xynDJADuJrB-26" style="edgeStyle=orthogonalEdgeStyle;curved=1;rounded=0;orthogonalLoop=1;jettySize=auto;html=1;exitX=0;exitY=0.25;exitDx=0;exitDy=0;entryX=0.815;entryY=0.844;entryDx=0;entryDy=0;entryPerimeter=0;startArrow=classic;startFill=1;endArrow=none;endFill=0;strokeColor=#FF3333;" parent="1" source="OfHiRRe80xynDJADuJrB-17" target="OfHiRRe80xynDJADuJrB-15" edge="1">
          <mxGeometry relative="1" as="geometry" />
        </mxCell>
        <mxCell id="OfHiRRe80xynDJADuJrB-27" style="edgeStyle=orthogonalEdgeStyle;curved=1;rounded=0;orthogonalLoop=1;jettySize=auto;html=1;exitX=0;exitY=0.75;exitDx=0;exitDy=0;entryX=0.81;entryY=0.886;entryDx=0;entryDy=0;entryPerimeter=0;startArrow=none;startFill=0;endArrow=classic;endFill=1;strokeColor=#FF3333;" parent="1" source="OfHiRRe80xynDJADuJrB-17" target="OfHiRRe80xynDJADuJrB-15" edge="1">
          <mxGeometry relative="1" as="geometry" />
        </mxCell>
        <mxCell id="OfHiRRe80xynDJADuJrB-17" value="&lt;h1&gt;&lt;span style=&quot;font-weight: normal&quot;&gt;preorder = [ ]&lt;br&gt;inorder = [ ]&lt;/span&gt;&lt;/h1&gt;&lt;p&gt;return None&lt;/p&gt;" style="text;html=1;strokeColor=#666666;fillColor=#f5f5f5;spacing=5;spacingTop=-20;whiteSpace=wrap;overflow=hidden;rounded=0;fontColor=#333333;" parent="1" vertex="1">
          <mxGeometry x="1400" y="410" width="290" height="100" as="geometry" />
        </mxCell>
        <mxCell id="OfHiRRe80xynDJADuJrB-22" style="edgeStyle=orthogonalEdgeStyle;curved=1;rounded=0;orthogonalLoop=1;jettySize=auto;html=1;exitX=0;exitY=0.25;exitDx=0;exitDy=0;entryX=0.898;entryY=0.876;entryDx=0;entryDy=0;entryPerimeter=0;startArrow=classic;startFill=1;endArrow=none;endFill=0;strokeColor=#B20000;fillColor=#e51400;" parent="1" source="OfHiRRe80xynDJADuJrB-18" target="OfHiRRe80xynDJADuJrB-16" edge="1">
          <mxGeometry relative="1" as="geometry" />
        </mxCell>
        <mxCell id="OfHiRRe80xynDJADuJrB-23" style="edgeStyle=orthogonalEdgeStyle;curved=1;rounded=0;orthogonalLoop=1;jettySize=auto;html=1;exitX=0;exitY=0.75;exitDx=0;exitDy=0;entryX=0.899;entryY=0.909;entryDx=0;entryDy=0;entryPerimeter=0;startArrow=none;startFill=0;endArrow=classic;endFill=1;strokeColor=#B09500;fillColor=#e3c800;" parent="1" source="OfHiRRe80xynDJADuJrB-18" target="OfHiRRe80xynDJADuJrB-16" edge="1">
          <mxGeometry relative="1" as="geometry" />
        </mxCell>
        <mxCell id="OfHiRRe80xynDJADuJrB-18" value="&lt;h1&gt;&lt;span style=&quot;font-size: 18px ; text-align: center&quot;&gt;preorder :[ 7 ]&lt;br&gt;&lt;/span&gt;&lt;span style=&quot;font-size: 18px ; text-align: center&quot;&gt;inorder :[ 7 ]&amp;nbsp;&amp;nbsp;&lt;/span&gt;&lt;br&gt;&lt;/h1&gt;&lt;p&gt;node = Treenode(preorder[ 0 ])&lt;br&gt;return node&lt;/p&gt;" style="text;html=1;strokeColor=#666666;fillColor=#f5f5f5;spacing=5;spacingTop=-20;whiteSpace=wrap;overflow=hidden;rounded=0;fontColor=#333333;" parent="1" vertex="1">
          <mxGeometry x="1800" y="330" width="190" height="110" as="geometry" />
        </mxCell>
        <mxCell id="OfHiRRe80xynDJADuJrB-20" style="edgeStyle=orthogonalEdgeStyle;curved=1;rounded=0;orthogonalLoop=1;jettySize=auto;html=1;exitX=0;exitY=0.25;exitDx=0;exitDy=0;entryX=0.835;entryY=0.802;entryDx=0;entryDy=0;entryPerimeter=0;startArrow=classic;startFill=1;endArrow=none;endFill=0;fillColor=#fa6800;strokeColor=#C73500;" parent="1" source="OfHiRRe80xynDJADuJrB-19" target="OfHiRRe80xynDJADuJrB-16" edge="1">
          <mxGeometry relative="1" as="geometry" />
        </mxCell>
        <mxCell id="OfHiRRe80xynDJADuJrB-21" style="edgeStyle=orthogonalEdgeStyle;curved=1;rounded=0;orthogonalLoop=1;jettySize=auto;html=1;exitX=0;exitY=0.75;exitDx=0;exitDy=0;entryX=0.834;entryY=0.837;entryDx=0;entryDy=0;entryPerimeter=0;startArrow=none;startFill=0;endArrow=classic;endFill=1;strokeColor=#B09500;fillColor=#e3c800;" parent="1" source="OfHiRRe80xynDJADuJrB-19" target="OfHiRRe80xynDJADuJrB-16" edge="1">
          <mxGeometry relative="1" as="geometry">
            <Array as="points">
              <mxPoint x="1750" y="285" />
              <mxPoint x="1750" y="339" />
            </Array>
          </mxGeometry>
        </mxCell>
        <mxCell id="OfHiRRe80xynDJADuJrB-19" value="&lt;h1&gt;&lt;span style=&quot;font-weight: normal&quot;&gt;preorder = [ ]&lt;br&gt;inorder = [ ]&lt;/span&gt;&lt;/h1&gt;&lt;p&gt;return None&lt;/p&gt;" style="text;html=1;strokeColor=#666666;fillColor=#f5f5f5;spacing=5;spacingTop=-20;whiteSpace=wrap;overflow=hidden;rounded=0;fontColor=#333333;" parent="1" vertex="1">
          <mxGeometry x="1800" y="210" width="190" height="100" as="geometry" />
        </mxCell>
        <mxCell id="OfHiRRe80xynDJADuJrB-51" style="rounded=0;orthogonalLoop=1;jettySize=auto;html=1;exitX=0;exitY=1;exitDx=0;exitDy=0;entryX=1;entryY=0;entryDx=0;entryDy=0;startArrow=none;startFill=0;endArrow=classic;endFill=1;strokeColor=#FF3333;" parent="1" source="OfHiRRe80xynDJADuJrB-42" target="OfHiRRe80xynDJADuJrB-43" edge="1">
          <mxGeometry relative="1" as="geometry" />
        </mxCell>
        <mxCell id="OfHiRRe80xynDJADuJrB-52" style="edgeStyle=none;rounded=0;orthogonalLoop=1;jettySize=auto;html=1;exitX=1;exitY=1;exitDx=0;exitDy=0;entryX=0;entryY=0;entryDx=0;entryDy=0;startArrow=none;startFill=0;endArrow=classic;endFill=1;strokeColor=#FF3333;" parent="1" source="OfHiRRe80xynDJADuJrB-42" target="OfHiRRe80xynDJADuJrB-48" edge="1">
          <mxGeometry relative="1" as="geometry" />
        </mxCell>
        <mxCell id="OfHiRRe80xynDJADuJrB-42" value="1" style="ellipse;whiteSpace=wrap;html=1;aspect=fixed;" parent="1" vertex="1">
          <mxGeometry x="-350" y="80" width="35" height="35" as="geometry" />
        </mxCell>
        <mxCell id="OfHiRRe80xynDJADuJrB-53" style="edgeStyle=none;rounded=0;orthogonalLoop=1;jettySize=auto;html=1;exitX=0;exitY=1;exitDx=0;exitDy=0;entryX=0.5;entryY=0;entryDx=0;entryDy=0;startArrow=none;startFill=0;endArrow=classic;endFill=1;strokeColor=#FF3333;" parent="1" source="OfHiRRe80xynDJADuJrB-43" target="OfHiRRe80xynDJADuJrB-44" edge="1">
          <mxGeometry relative="1" as="geometry" />
        </mxCell>
        <mxCell id="OfHiRRe80xynDJADuJrB-54" style="edgeStyle=none;rounded=0;orthogonalLoop=1;jettySize=auto;html=1;exitX=1;exitY=1;exitDx=0;exitDy=0;entryX=0.5;entryY=0;entryDx=0;entryDy=0;startArrow=none;startFill=0;endArrow=classic;endFill=1;strokeColor=#FF3333;" parent="1" source="OfHiRRe80xynDJADuJrB-43" target="OfHiRRe80xynDJADuJrB-45" edge="1">
          <mxGeometry relative="1" as="geometry" />
        </mxCell>
        <mxCell id="OfHiRRe80xynDJADuJrB-43" value="2" style="ellipse;whiteSpace=wrap;html=1;aspect=fixed;" parent="1" vertex="1">
          <mxGeometry x="-420" y="145" width="35" height="35" as="geometry" />
        </mxCell>
        <mxCell id="OfHiRRe80xynDJADuJrB-44" value="5" style="ellipse;whiteSpace=wrap;html=1;aspect=fixed;" parent="1" vertex="1">
          <mxGeometry x="-460" y="220" width="35" height="35" as="geometry" />
        </mxCell>
        <mxCell id="OfHiRRe80xynDJADuJrB-55" style="edgeStyle=none;rounded=0;orthogonalLoop=1;jettySize=auto;html=1;exitX=0;exitY=1;exitDx=0;exitDy=0;entryX=0.5;entryY=0;entryDx=0;entryDy=0;startArrow=none;startFill=0;endArrow=classic;endFill=1;strokeColor=#FF3333;" parent="1" source="OfHiRRe80xynDJADuJrB-45" target="OfHiRRe80xynDJADuJrB-46" edge="1">
          <mxGeometry relative="1" as="geometry" />
        </mxCell>
        <mxCell id="OfHiRRe80xynDJADuJrB-45" value="4" style="ellipse;whiteSpace=wrap;html=1;aspect=fixed;" parent="1" vertex="1">
          <mxGeometry x="-385" y="220" width="35" height="35" as="geometry" />
        </mxCell>
        <mxCell id="OfHiRRe80xynDJADuJrB-56" style="edgeStyle=none;rounded=0;orthogonalLoop=1;jettySize=auto;html=1;exitX=1;exitY=1;exitDx=0;exitDy=0;entryX=0;entryY=0;entryDx=0;entryDy=0;startArrow=none;startFill=0;endArrow=classic;endFill=1;strokeColor=#FF3333;" parent="1" source="OfHiRRe80xynDJADuJrB-46" target="OfHiRRe80xynDJADuJrB-47" edge="1">
          <mxGeometry relative="1" as="geometry" />
        </mxCell>
        <mxCell id="OfHiRRe80xynDJADuJrB-46" value="6" style="ellipse;whiteSpace=wrap;html=1;aspect=fixed;" parent="1" vertex="1">
          <mxGeometry x="-420" y="280" width="35" height="35" as="geometry" />
        </mxCell>
        <mxCell id="OfHiRRe80xynDJADuJrB-47" value="7" style="ellipse;whiteSpace=wrap;html=1;aspect=fixed;" parent="1" vertex="1">
          <mxGeometry x="-385" y="325" width="35" height="35" as="geometry" />
        </mxCell>
        <mxCell id="OfHiRRe80xynDJADuJrB-57" style="edgeStyle=none;rounded=0;orthogonalLoop=1;jettySize=auto;html=1;exitX=0;exitY=1;exitDx=0;exitDy=0;entryX=0.5;entryY=0;entryDx=0;entryDy=0;startArrow=none;startFill=0;endArrow=classic;endFill=1;strokeColor=#FF3333;" parent="1" source="OfHiRRe80xynDJADuJrB-48" target="OfHiRRe80xynDJADuJrB-49" edge="1">
          <mxGeometry relative="1" as="geometry" />
        </mxCell>
        <mxCell id="OfHiRRe80xynDJADuJrB-58" style="edgeStyle=none;rounded=0;orthogonalLoop=1;jettySize=auto;html=1;exitX=1;exitY=1;exitDx=0;exitDy=0;entryX=0.5;entryY=0;entryDx=0;entryDy=0;startArrow=none;startFill=0;endArrow=classic;endFill=1;strokeColor=#FF3333;" parent="1" source="OfHiRRe80xynDJADuJrB-48" target="OfHiRRe80xynDJADuJrB-50" edge="1">
          <mxGeometry relative="1" as="geometry" />
        </mxCell>
        <mxCell id="OfHiRRe80xynDJADuJrB-48" value="3" style="ellipse;whiteSpace=wrap;html=1;aspect=fixed;" parent="1" vertex="1">
          <mxGeometry x="-280" y="145" width="35" height="35" as="geometry" />
        </mxCell>
        <mxCell id="OfHiRRe80xynDJADuJrB-49" value="8" style="ellipse;whiteSpace=wrap;html=1;aspect=fixed;" parent="1" vertex="1">
          <mxGeometry x="-315" y="200" width="35" height="35" as="geometry" />
        </mxCell>
        <mxCell id="OfHiRRe80xynDJADuJrB-50" value="9" style="ellipse;whiteSpace=wrap;html=1;aspect=fixed;" parent="1" vertex="1">
          <mxGeometry x="-245" y="200" width="35" height="35" as="geometry" />
        </mxCell>
      </root>
    </mxGraphModel>
  </diagram>
</mxfile>
